<svg width="60" height="60" viewBox="0 0 60 60" fill="none" xmlns="http://www.w3.org/2000/svg">
    <g filter="url(#filter0_d)">
        <circle cx="30" cy="26" r="26" fill="#25D366"/>
    </g>
    <path d="M30 11C21.728 11 15 17.728 15 26C15 28.75 15.687 31.42 17.025 33.771L15.632 38.868L20.916 37.47C23.16 38.749 25.495 39.368 29.989 39.37H30C38.271 39.37 45 32.642 45 24.37C45 16.098 38.272 11 30 11ZM30 36.852H29.991C26.173 36.852 24.195 36.327 22.288 35.193L21.84 34.927L18.675 35.761L19.522 32.664L19.06 31.932C17.757 29.866 17.518 28.311 17.518 26.001C17.518 19.117 23.117 13.518 30.002 13.518C36.886 13.518 42.484 19.117 42.484 26.002C42.484 32.887 36.884 36.852 30 36.852ZM36.903 30.548C36.561 30.378 34.878 29.549 34.563 29.435C34.248 29.321 34.019 29.263 33.791 29.605C33.562 29.948 32.903 30.718 32.703 30.947C32.503 31.176 32.303 31.205 31.96 31.033C31.618 30.862 30.514 30.5 29.206 29.333C28.18 28.419 27.487 27.289 27.288 26.946C27.087 26.604 27.266 26.419 27.437 26.249C27.591 26.095 27.781 25.849 27.952 25.649C28.123 25.449 28.18 25.307 28.295 25.078C28.409 24.85 28.352 24.649 28.266 24.478C28.18 24.307 27.494 22.618 27.209 21.936C26.93 21.272 26.649 21.362 26.438 21.362C26.239 21.362 26.01 21.349 25.782 21.349C25.553 21.349 25.182 21.435 24.868 21.777C24.554 22.12 23.667 22.948 23.667 24.632C23.667 26.315 24.896 27.943 25.068 28.172C25.239 28.4 27.478 31.854 30.908 33.336C34.338 34.819 34.338 34.336 34.937 34.279C35.536 34.221 36.879 33.507 37.164 32.708C37.449 31.909 37.449 31.223 37.364 31.08C37.279 30.938 37.05 30.862 36.903 30.548Z" fill="white"/>
    
    <defs>
        <filter id="filter0_d" x="0" y="0" width="60" height="60" filterUnits="userSpaceOnUse" color-interpolation-filters="sRGB">
            <feFlood flood-opacity="0" result="BackgroundImageFix"/>
            <feColorMatrix in="SourceAlpha" type="matrix" values="0 0 0 0 0 0 0 0 0 0 0 0 0 0 0 0 0 0 127 0"/>
            <feOffset dy="4"/>
            <feGaussianBlur stdDeviation="2"/>
            <feColorMatrix type="matrix" values="0 0 0 0 0 0 0 0 0 0 0 0 0 0 0 0 0 0 0.25 0"/>
            <feBlend mode="normal" in2="BackgroundImageFix" result="effect1_dropShadow"/>
            <feBlend mode="normal" in="SourceGraphic" in2="effect1_dropShadow" result="shape"/>
        </filter>
    </defs>
</svg>
